<svg viewBox="85 90 229.99999999999997 219.99999999999997" fill="none"
    xmlns="http://www.w3.org/2000/svg" xmlns:xlink="http://www.w3.org/1999/xlink" overflow="visible"
    width="229.99999999999997px" height="219.99999999999997px">
    <g id="Master/New Stickers/Gears">
        <g id="Group 1">
            <path id="Fill-1" fill-rule="evenodd" clip-rule="evenodd"
                d="M123.379 134.777C134.09 120.35 154.468 117.338 168.895 128.049C183.32 138.759 186.334 159.138 175.623 173.565C164.912 187.992 144.532 191.003 130.107 180.293C115.68 169.582 112.668 149.204 123.379 134.777ZM198.358 187.499L205.574 173.084C206.198 171.836 205.688 170.304 204.441 169.679L197.38 166.145C197.38 166.145 197.38 166.145 197.38 166.144C198.484 161.725 198.958 157.206 198.821 152.719C198.821 152.719 198.821 152.719 198.821 152.718L206.615 150.86C207.973 150.537 208.818 149.162 208.495 147.804L204.757 132.124C204.433 130.766 203.058 129.92 201.701 130.244L193.671 132.158C193.67 132.158 193.67 132.157 193.67 132.157C191.722 128.244 189.239 124.557 186.234 121.213L191.27 114.43C192.102 113.31 191.866 111.712 190.745 110.881L177.802 101.271C176.682 100.44 175.085 100.676 174.253 101.796L169.02 108.844C165.013 107.113 160.846 105.95 156.632 105.338C156.631 105.338 156.631 105.338 156.631 105.338L156.098 96.3855C156.015 94.9935 154.807 93.9215 153.414 94.0045L137.323 94.9625C135.93 95.0455 134.858 96.2535 134.941 97.6455L135.49 106.859C131.473 108.043 127.594 109.744 123.958 111.941L117.556 105.173C116.597 104.159 114.983 104.114 113.969 105.073L102.259 116.151C101.245 117.109 101.2 118.723 102.159 119.737L108.611 126.558C106.208 130.106 104.33 133.869 102.959 137.75L93.6788 136.677C92.2928 136.517 91.0278 137.52 90.8668 138.906L89.0168 154.92C88.8568 156.306 89.8598 157.571 91.2458 157.731L100.376 158.786C100.376 158.787 100.376 158.787 100.376 158.787C100.775 163.013 101.714 167.183 103.18 171.185L95.6388 176.159C94.4738 176.928 94.1498 178.509 94.9178 179.674L103.794 193.13C104.562 194.295 106.144 194.62 107.308 193.851L114.591 189.048C116.282 190.736 118.114 192.321 120.088 193.787C121.664 194.957 123.289 196.02 124.953 196.975L122.519 205.144C122.12 206.482 122.889 207.902 124.226 208.3L139.675 212.903C141.012 213.302 142.432 212.533 142.83 211.196L145.175 203.327C149.65 203.718 154.148 203.493 158.542 202.679L161.741 210.07C162.296 211.35 163.797 211.945 165.077 211.39L179.871 204.986C181.151 204.432 181.745 202.93 181.191 201.65L178.061 194.421C181.688 191.846 185.018 188.739 187.931 185.117C187.932 185.117 187.932 185.117 187.932 185.117L194.954 188.632C196.201 189.256 197.733 188.746 198.358 187.499Z"
                fill="#FFC81A" />
            <g id="Group-5">
                <path id="Fill-3" fill-rule="evenodd" clip-rule="evenodd"
                    d="M188.613 227.017C188.613 202.961 208.113 183.461 232.169 183.461C256.222 183.461 275.725 202.961 275.725 227.017C275.725 251.073 256.222 270.573 232.169 270.573C208.113 270.573 188.613 251.073 188.613 227.017ZM311.284 223.851L307.536 202.597C307.212 200.758 305.441 199.518 303.601 199.842L293.191 201.678V201.677C290.851 196.045 287.753 190.809 284.026 186.096C284.025 186.095 284.025 186.095 284.025 186.095L290.92 177.878C292.121 176.447 291.933 174.293 290.502 173.093L273.969 159.221C272.538 158.02 270.385 158.208 269.184 159.639L262.081 168.105C262.08 168.105 262.079 168.104 262.078 168.104C256.862 165.453 251.251 163.471 245.352 162.275V150.965C245.352 149.097 243.823 147.568 241.955 147.568H220.374C218.506 147.568 216.977 149.097 216.977 150.965V162.717C211.288 164.054 205.881 166.13 200.862 168.835C200.862 168.835 200.862 168.835 200.861 168.835L193.145 159.639C191.944 158.208 189.791 158.02 188.36 159.221L171.827 173.093C170.396 174.293 170.208 176.447 171.409 177.878L179.351 187.343C175.978 191.821 173.166 196.745 171.011 202.008L158.728 199.842C156.888 199.518 155.117 200.758 154.793 202.597L151.045 223.851C150.721 225.69 151.961 227.461 153.8 227.785L166.18 229.968C166.428 235.7 167.413 241.243 169.035 246.509L158.205 252.762C156.587 253.696 156.027 255.784 156.961 257.402L167.752 276.092C168.686 277.71 170.774 278.269 172.392 277.335L183.048 271.183C186.849 275.407 191.187 279.141 195.957 282.272L191.82 293.638C191.181 295.393 192.095 297.352 193.85 297.991L214.13 305.372C215.885 306.011 217.844 305.097 218.483 303.342L222.478 292.366C225.643 292.832 228.877 293.074 232.169 293.074C234.797 293.074 237.392 292.92 239.942 292.618L243.846 303.342C244.485 305.097 246.443 306.011 248.199 305.372L268.479 297.991C270.234 297.352 271.148 295.393 270.509 293.638L266.749 283.308C271.871 280.157 276.527 276.325 280.6 271.944L289.937 277.335C291.555 278.269 293.643 277.71 294.577 276.092L305.368 257.402C306.302 255.784 305.742 253.696 304.124 252.762L294.991 247.489C296.835 241.827 297.934 235.83 298.176 229.612C298.176 229.611 298.176 229.611 298.176 229.611L308.528 227.785C310.368 227.461 311.608 225.69 311.284 223.851Z"
                    fill="#8dd261" />
            </g>
        </g>
    </g>
</svg>