<svg viewBox="70 90 260 219.99999999999997" fill="none" xmlns="http://www.w3.org/2000/svg"
    xmlns:xlink="http://www.w3.org/1999/xlink" overflow="visible" width="260px"
    height="219.99999999999997px">
    <g id="Master/New Stickers/Puzzle">
        <g id="Group-9">
            <path id="Fill-1" fill-rule="evenodd" clip-rule="evenodd"
                d="M260.13 227.847C260.178 217.318 268.73 208.823 279.229 208.871C284.628 208.896 289.49 211.175 292.934 214.814L293.082 182.531L258.675 182.372C263.106 178.903 265.965 173.503 265.993 167.427C266.042 156.898 257.57 148.324 247.071 148.276C236.571 148.227 228.02 156.723 227.971 167.252C227.943 173.328 230.754 178.754 235.153 182.264L201.257 182.108L201.099 216.488C204.601 212.076 210.01 209.259 216.07 209.287C226.569 209.335 235.041 217.909 234.992 228.437C234.944 238.966 226.393 247.463 215.894 247.415C209.834 247.387 204.451 244.518 200.99 240.075L200.832 274.411L235.65 274.571V274.564L236.693 274.569C231.156 277.88 227.434 283.933 227.402 290.868C227.354 301.397 235.827 309.971 246.326 310.019C256.826 310.067 265.376 301.572 265.424 291.043C265.456 284.108 261.79 278.021 256.284 274.659L292.658 274.827L292.812 241.182C289.336 244.79 284.453 247.024 279.054 246.999C268.554 246.951 260.082 238.376 260.13 227.847Z"
                fill="#FFC81A" />
            <g id="Group-5">
                <path id="Fill-3" fill-rule="evenodd" clip-rule="evenodd"
                    d="M246.769 123.054C236.296 123.006 227.847 114.428 227.895 103.896C227.92 98.48 230.187 93.602 233.806 90.148L201.696 90L201.537 124.516C198.086 120.071 192.715 117.203 186.671 117.175C176.199 117.127 167.67 125.625 167.621 136.157C167.573 146.69 176.023 155.268 186.495 155.316C192.54 155.344 197.936 152.524 201.428 148.111L201.272 182.113L235.468 182.271C231.08 178.758 228.278 173.332 228.306 167.253C228.354 156.721 236.883 148.222 247.355 148.271C257.828 148.319 266.279 156.895 266.231 167.428C266.203 173.506 263.349 178.906 258.929 182.379L293.082 182.536L293.243 147.609H293.236L293.241 146.563C296.534 152.117 302.554 155.85 309.453 155.882C319.925 155.93 328.454 147.43 328.502 136.898C328.551 126.366 320.101 117.789 309.628 117.741C302.73 117.709 296.675 121.386 293.332 126.91L293.499 90.423L260.034 90.269C263.623 93.756 265.845 98.655 265.82 104.07C265.771 114.602 257.241 123.102 246.769 123.054Z"
                    fill="#13D6C3" />
            </g>
            <g id="Group-8">
                <path id="Fill-6" fill-rule="evenodd" clip-rule="evenodd"
                    d="M215.941 247.251C209.863 247.223 204.462 244.363 200.99 239.931L200.832 274.343L166.238 274.184C169.878 270.74 172.157 265.877 172.182 260.478C172.231 249.978 163.732 241.425 153.2 241.377C142.668 241.328 134.09 249.802 134.041 260.303C134.017 265.702 136.251 270.585 139.861 274.063L106.204 273.908L106.372 237.53C103.01 243.037 96.9214 246.703 89.9834 246.671C79.4514 246.623 70.9524 238.071 71.0002 227.571C71.0494 217.07 79.6264 208.597 90.1584 208.646C97.0964 208.677 103.151 212.399 106.462 217.937L106.629 181.56L138.964 181.708C136.104 185.015 134.368 189.315 134.346 194.024C134.298 204.526 142.798 213.077 153.33 213.125C163.862 213.174 172.439 204.701 172.487 194.2C172.509 189.491 170.813 185.175 167.985 181.842L201.257 181.995L201.099 216.407C204.611 212.007 210.038 209.197 216.116 209.225C226.648 209.274 235.147 217.825 235.1 228.326C235.051 238.826 226.473 247.299 215.941 247.251Z"
                    fill="#FF4B33" />
            </g>
        </g>
    </g>
</svg>