<svg width="22" height="25" viewBox="0 0 22 25" fill="none" xmlns="http://www.w3.org/2000/svg">
<path fill-rule="evenodd" clip-rule="evenodd" d="M11 0C14.7553 0 17.8214 3.07118 17.8214 6.88652C17.8212 9.00312 16.8763 10.8892 15.3946 12.1502C19.2781 13.8596 21.9999 17.7642 22 22.3234V23.7276C21.9996 24.4299 21.4401 25 20.75 25C20.0601 24.9997 19.5004 24.4298 19.4999 23.7276V22.3234C19.4998 17.6129 15.7066 13.7718 11 13.7718C6.29357 13.7719 2.50017 17.613 2.50006 22.3234V23.7276C2.49962 24.4299 1.94013 25 1.25003 25C0.559926 25 0.000437094 24.4299 0 23.7276V22.3234C8.67664e-05 17.7644 2.72217 13.8597 6.60537 12.1502C5.12383 10.8892 4.17878 9.00298 4.17856 6.88652C4.17856 3.07128 7.24476 0.000133306 11 0ZM11 2.54486C8.60131 2.54499 6.67862 4.50126 6.67862 6.88652C6.67902 9.2714 8.60157 11.2268 11 11.2269C13.3985 11.2269 15.321 9.27147 15.3214 6.88652C15.3214 4.50119 13.3988 2.54486 11 2.54486Z" fill="#FAFAFA"/>
</svg>
