<svg viewBox="900 900 200.00000000000017 200.00000000000017" fill="none" xmlns="http://www.w3.org/2000/svg" xmlns:xlink="http://www.w3.org/1999/xlink" overflow="visible" width="200.00000000000017px" height="200.00000000000017px"><g id="Master/New Stickers/Pointer"><g id="Group 9"><path id="Fill 1" fill-rule="evenodd" clip-rule="evenodd" d="M1073.15 973.98L934.532 912.257C932.996 911.573 931.17 913.146 931.619 914.767L972.16 1060.99C972.616 1062.64 974.95 1062.68 975.829 1061.06L994.419 1019.1L1046.86 1079.97L1080.87 1050.67L1028.43 989.798L1072.67 977.618C1074.41 976.989 1074.71 974.675 1073.15 973.98" fill="black"/><path id="Fill 3" fill-rule="evenodd" clip-rule="evenodd" d="M1047.06 1078.43L1079.32 1050.64L1026.43 989.25L1072.49 976.57C1072.93 976.404 1073.03 975.94 1073.05 975.801C1073.07 975.664 1073.09 975.196 1072.61 974.981L933.987 913.258C933.51 913.047 933.117 913.338 933.007 913.432C932.898 913.527 932.552 913.873 932.691 914.374L973.231 1060.6C973.372 1061.11 973.838 1061.16 973.977 1061.16C974.116 1061.16 974.588 1061.13 974.864 1060.63L994.172 1017.04L1047.06 1078.43ZM1082.43 1050.7L1046.66 1081.51L994.664 1021.16L976.838 1061.4C976.172 1062.63 974.956 1063.36 973.695 1063.34C972.434 1063.32 971.411 1062.55 971.088 1061.38L930.548 915.158C930.224 913.992 930.648 912.729 931.655 911.862C932.661 910.995 933.973 910.763 935.078 911.255L1073.7 972.978C1074.81 973.469 1075.41 974.595 1075.25 975.845C1075.09 977.097 1074.18 978.19 1072.95 978.637L1030.43 990.346L1082.43 1050.7Z" fill="black"/><path id="Fill 5" fill-rule="evenodd" clip-rule="evenodd" d="M1059.71 981.457L921.091 919.734C919.555 919.05 917.729 920.623 918.178 922.244L958.719 1068.47C959.175 1070.12 961.509 1070.16 962.388 1068.53L980.978 1026.58L1033.42 1087.45L1067.43 1058.14L1014.99 997.275L1059.23 985.095C1060.97 984.466 1061.27 982.152 1059.71 981.457" fill="white"/><path id="Fill 7" fill-rule="evenodd" clip-rule="evenodd" d="M1033.62 1085.91L1065.88 1058.12L1012.99 996.727L1059.05 984.047C1059.49 983.881 1059.59 983.417 1059.61 983.278C1059.63 983.141 1059.65 982.673 1059.17 982.458L920.546 920.735C920.069 920.524 919.676 920.815 919.566 920.909C919.457 921.004 919.111 921.35 919.25 921.851L959.79 1068.08C959.931 1068.59 960.397 1068.64 960.536 1068.64C960.675 1068.64 961.147 1068.61 961.423 1068.11L980.731 1024.52L1033.62 1085.91ZM1068.99 1058.17L1033.22 1088.99L981.223 1028.64L963.396 1068.87C962.731 1070.11 961.515 1070.84 960.254 1070.82C958.993 1070.8 957.97 1070.03 957.647 1068.86L917.107 922.635C916.783 921.469 917.207 920.206 918.214 919.339C919.22 918.472 920.532 918.24 921.637 918.732L1060.26 980.455C1061.37 980.946 1061.97 982.072 1061.81 983.322C1061.64 984.574 1060.74 985.667 1059.51 986.114L1016.99 997.823L1068.99 1058.17Z" fill="black"/></g></g></svg>